<?xml version="1.0" encoding="utf-8"?>
<!-- Generator: Adobe Illustrator 23.0.1, SVG Export Plug-In . SVG Version: 6.00 Build 0)  -->
<svg version="1.1" id="Layer_1" xmlns="http://www.w3.org/2000/svg" xmlns:xlink="http://www.w3.org/1999/xlink" x="0px" y="0px"
	 viewBox="0 0 216 234" style="enable-background:new 0 0 216 234;" xml:space="preserve">
<style type="text/css">
	.st0{fill:#00D8FF;}
</style>
<g>
	<rect x="38" y="157" class="st0" width="24" height="24"/>
</g>
<g>
	<rect x="62" y="157" class="st0" width="24" height="24"/>
</g>
<g>
	<rect x="62" y="181" class="st0" width="24" height="24"/>
</g>
<g>
	<rect x="86" y="181" class="st0" width="24" height="24"/>
</g>
<g>
	<rect x="86" y="157" class="st0" width="24" height="24"/>
</g>
<g>
	<rect x="62" y="133" class="st0" width="24" height="24"/>
</g>
<g>
	<rect x="86" y="133" class="st0" width="24" height="24"/>
</g>
<g>
	<rect x="110" y="157" class="st0" width="24" height="24"/>
</g>
<g>
	<rect x="110" y="133" class="st0" width="24" height="24"/>
</g>
<g>
	<rect x="110" y="109" class="st0" width="24" height="24"/>
</g>
<g>
	<rect x="110" y="85" class="st0" width="24" height="24"/>
</g>
<g>
	<rect x="110" y="61" class="st0" width="24" height="24"/>
</g>
<g>
	<rect x="134" y="37" class="st0" width="24" height="24"/>
</g>
<g>
	<rect x="134" y="61" class="st0" width="24" height="24"/>
</g>
<g>
	<rect x="158" y="61" class="st0" width="24" height="24"/>
</g>
<g>
	<rect x="110" y="37" class="st0" width="24" height="24"/>
</g>
<rect x="62" y="133" class="st0" width="72" height="48"/>
<rect x="62" y="152" class="st0" width="48" height="53"/>
<rect x="38" y="157" class="st0" width="72" height="24"/>
<rect x="110" y="37" class="st0" width="24" height="144"/>
<rect x="110" y="61" class="st0" width="72" height="24"/>
<rect x="110" y="37" class="st0" width="48" height="48"/>
</svg>
