<?xml version="1.0" encoding="utf-8"?>
<!-- Generator: Adobe Illustrator 23.0.1, SVG Export Plug-In . SVG Version: 6.00 Build 0)  -->
<svg version="1.1" id="Layer_1" xmlns="http://www.w3.org/2000/svg" xmlns:xlink="http://www.w3.org/1999/xlink" x="0px" y="0px"
	 viewBox="0 0 216 234" style="enable-background:new 0 0 216 234;" xml:space="preserve">
<style type="text/css">
	.st0{fill:#FFFFFF;}
	.st1{fill:#35008C;}
</style>
<g>
	<g>
		<rect x="108" y="37" class="st0" width="24" height="144"/>
	</g>
	<g>
		<rect x="108" y="85" class="st0" width="24" height="24"/>
	</g>
	<g>
		<rect x="108" y="61" class="st0" width="24" height="24"/>
	</g>
	<g>
		<rect x="108" y="37" class="st0" width="48" height="48"/>
	</g>
	<g>
		<rect x="108" y="61" class="st0" width="73.17" height="24"/>
	</g>
	<g>
		<rect x="156" y="61" class="st0" width="24" height="24"/>
	</g>
	<g>
		<rect x="108" y="37" class="st0" width="24" height="24"/>
	</g>
	<rect x="60" y="133" class="st0" width="72" height="48"/>
	<rect x="60" y="152" class="st0" width="48" height="53"/>
	<rect x="36" y="157" class="st0" width="72" height="24"/>
</g>
<g>
	<rect x="132" y="85" class="st1" width="84" height="149"/>
	<rect x="108" y="181" class="st1" width="53" height="53"/>
	<rect y="205" class="st1" width="121.8" height="29"/>
	<rect y="181" class="st1" width="59.9" height="53"/>
	<rect class="st1" width="36.77" height="234"/>
	<rect class="st1" width="108" height="133"/>
	<rect class="st1" width="59.9" height="157"/>
	<rect x="59.9" class="st1" width="154.1" height="37"/>
	<rect x="156" class="st1" width="58" height="61"/>
	<rect x="181.17" class="st1" width="34.83" height="170.83"/>
</g>
</svg>
