<?xml version="1.0" encoding="utf-8"?>
<!-- Generator: Adobe Illustrator 23.0.1, SVG Export Plug-In . SVG Version: 6.00 Build 0)  -->
<svg version="1.1" id="Layer_1" xmlns="http://www.w3.org/2000/svg" xmlns:xlink="http://www.w3.org/1999/xlink" x="0px" y="0px"
	 viewBox="0 0 1152 1440" style="enable-background:new 0 0 1152 1440;" xml:space="preserve">
<style type="text/css">
	.st0{fill:#FFCF4C;}
</style>
<g>
	<g id="XMLID_1_">
		<g>
			<path d="M693.57,511.24c0.92,3.3-0.31,6.08-2.09,8.73c-11.21,16.81-22.42,33.63-33.63,50.44c-16.6,24.89-33.17,49.8-49.84,74.65
				c-1.4,2.08-1.28,3.44,0.06,5.45c27.87,41.67,55.66,83.39,83.46,125.1c3.31,4.98,3.1,9.65-0.66,13.17
				c-0.98,0.89-2.23,1.5-3.36,2.23c-1.59,0-3.19,0-4.77,0c-1.68-0.74-3.39-1.38-5.02-2.2c-87.89-43.93-175.76-87.87-263.64-131.78
				c-3.12-1.56-5.65-3.54-6.87-6.9c0-1.59,0-3.19,0-4.78c1.17-3.16,3.47-5.19,6.44-6.68c88.54-44.24,177.05-88.51,265.58-132.76
				C685.8,502.62,691.81,504.88,693.57,511.24z M657.02,538.01c-0.93-0.16-1.55,0.43-2.22,0.77
				c-71.65,35.8-143.3,71.63-214.94,107.47c-0.75,0.37-1.97,0.51-2.03,1.44c-0.06,1.01,1.2,1.11,1.93,1.49
				c71.71,35.87,143.44,71.74,215.16,107.59c0.64,0.31,1.26,0.92,2.28,0.64c-0.6-0.93-1.1-1.73-1.62-2.51
				c-22.12-33.17-44.22-66.34-66.34-99.51c-4.22-6.32-4.23-8.95-0.06-15.21c22.12-33.17,44.22-66.32,66.32-99.51
				C656.07,539.85,656.83,539.11,657.02,538.01z"/>
			<path class="st0" d="M654.8,538.79c0.68-0.34,1.29-0.93,2.22-0.77c-0.19,1.1-0.95,1.84-1.51,2.66
				c-22.1,33.18-44.21,66.34-66.32,99.51c-4.17,6.26-4.16,8.89,0.06,15.21c22.12,33.17,44.22,66.34,66.34,99.51
				c0.52,0.79,1.01,1.58,1.62,2.51c-1.03,0.28-1.64-0.33-2.28-0.64c-71.72-35.85-143.45-71.71-215.16-107.59
				c-0.74-0.37-1.99-0.47-1.93-1.49c0.06-0.93,1.28-1.06,2.03-1.44C511.5,610.41,583.15,574.59,654.8,538.79z"/>
		</g>
		<g>
		</g>
	</g>
</g>
</svg>
