<?xml version="1.0" encoding="utf-8"?>
<!-- Generator: Adobe Illustrator 23.0.1, SVG Export Plug-In . SVG Version: 6.00 Build 0)  -->
<svg version="1.1" id="Layer_1" xmlns="http://www.w3.org/2000/svg" xmlns:xlink="http://www.w3.org/1999/xlink" x="0px" y="0px"
	 viewBox="0 0 1860 766" style="enable-background:new 0 0 1860 766;" xml:space="preserve">
<style type="text/css">
	.st0{fill:#FFCF4C;}
</style>
<g>
	<g id="XMLID_1_">
		<g>
			<path class="st0" d="M682.1,243.9c2.1,9.4,4.1,18.9,6.2,28.3c-0.1,10.8-0.1,21.6-2.4,32.3c-5.9,27.7-19.7,50.6-41.3,69
				c-3.5,3-5.6,3.1-7.9-1.2c-2-3.6-4.6-6.9-7.1-10.3c-1.7-2.2-1.3-3.8,0.9-5.4c8.5-6.1,15.4-13.8,21.3-22.3
				c11.8-17.2,17.8-36.2,17.9-57.1c-8.5,43.3-32.4,74-74.3,88.9c-27.8,9.9-55.5,7.5-82-5.6c6.9,2.3,14,4.6,21.2,6.3
				c17.7,4.2,35.7,4.2,53-0.7c21.8-6.2,39.9-19.2,53.7-37.2c16.3-21.2,23.7-45.4,22.5-72.4c-1-23-11.8-40.7-28.8-55
				c-23.1-19.5-50.4-27.1-80-24.7c-51.2,4.1-90.9,28.8-119,71.4c-20.3,30.8-27.9,65.2-24.3,102c0.3,2.8,0.4,5.6,0.3,8.4
				c-3.1-7.7-3.4-15.9-3.7-24.1c-1.6-54.6,18.5-99.5,61-133.9c19.7-16,42.2-26.9,66.9-32.4c26.1-5.7,52-4.6,77.1,5.3
				c1,0.4,2,1.2,3.7,0.6c-9.3-7.3-19.5-12.3-30.3-16.2c-26.5-9.5-53.6-10.4-80.7-3.2c-35.9,9.4-64.9,29.8-87.6,58.9
				c-25.6,32.7-39.1,70-38.8,111.7c0.4,59.1,23.9,107.5,70.1,144.4c28.6,22.9,61.9,34,98.3,36.4c3.8,0.3,7.7,0.2,11.5-0.3
				c3.9-0.5,5.7,0.9,6,4.6c0.3,2.8,0.4,5.7,1,8.4c2.4,10.3-0.4,8.9-8.1,9.4c-28.6,1.8-56.9-0.2-84.7-7.7
				c-18.9-5.1-36.9-12.4-54.4-21.1c-27.2-13.5-56.3-19.5-86.7-17.7c-41.5,2.4-76.8,18.3-104,50.2c-19.8,23.3-31,50.1-29,81.2
				c1.4,20.6,8.8,38.8,23.2,54c1,1.1,2,2.2,3,3.3c0.2,0.2,0.1,0.6,0.3,1.7c-7.2-5.7-12.4-12.2-16.9-19.3
				c-18-28.5-18.6-58.6-6.9-89.2c15.3-40,44.3-66.6,83.7-82.3c29.5-11.7,59.9-13.2,90.9-8c0.6,0.1,1.3,0.1,2.9,0.2
				c-4.7-4.1-8.7-7.6-12.7-11.2c-32.8-29.7-56.6-65.6-69.9-107.7C276,288.1,281.3,223.3,313.8,161c19.9-38.2,47.6-69.4,85-91.3
				c11.6-6.8,23.8-12.6,36.7-16.8c1.1-0.3,2-1.1,3.1-1.6c7.8-1.7,15.6-3.4,23.4-5.1c9.1,0.1,18.2-0.8,27.4-0.5
				C548.8,48,604,89,623.2,145.4c2.4,7.1,3.7,14.5,4.9,21.9c-2.2-8.3-4.9-16.5-8.1-24.5c-10.3-26.3-26.5-48.1-49.7-64.3
				c-40-27.9-83.7-34.4-129.9-19.7c-39.2,12.5-69.6,37.9-94.1,70.5c-32.7,43.4-49.2,92.4-48.3,146.8c0.8,50.9,16.2,97.2,46.8,138.1
				c18.9,25.3,41.9,46,69,62.1c10.5,6.3,21.5,11.5,33.2,15.5c-10.8-8.6-21.3-17.6-30.6-27.7c-20.4-22.3-35.5-47.7-44.2-76.9
				c-14.7-49.3-11.2-97.2,10.9-143.5c17-35.6,42.5-63.6,77.4-82.5c36-19.6,74.2-26.6,114.4-15.8c28.3,7.5,52,22.8,70.5,45.8
				c6.8,8.4,15.4,15.2,21.5,24.2C673.1,224.2,677.5,234.1,682.1,243.9z"/>
			<path class="st0" d="M352.8,568.4c16,15.6,22.8,35,20.8,56.7c-3.7,42.1-25.3,72.4-63.2,91c-1.9,0.9-3.9,1.9-5.8,2.9
				c-8.8,1.9-17.6,3.8-26.4,5.7c-15.4,0.2-30.6-1.4-45.2-6.7c-39.7-14.4-61.9-43-66-84.7c-4.5-45.4,10.6-84.2,42.6-116.6
				c9.9-10,21.3-18.2,34.4-23.6c0.8-0.3,1.5-0.6,2.3-0.9c0.3-0.1,0.6,0.1,0.9,0.2c-1,1.7-2.9,2.2-4.4,3.1
				c-49.4,29.6-72.1,73.7-69.7,130.7c1,23.8,9.3,45.4,26.8,62.3c20.1,19.4,45,26.1,72.1,24.9c48.7-2.2,85.6-46.3,86.4-90.3
				c0.4-18.8-5.7-35.1-20.9-47c-2.8-2.2-2.9-3.6-1-6.4C343.7,559.6,343.6,559.5,352.8,568.4z"/>
			<path class="st0" d="M331.9,448.7c1,4.6-1.3,5.3-4.9,5.9c-36.9,6.3-71.5,0.5-102.5-21.1c-27.6-19.3-46.1-45.8-57.5-77.4
				c-0.4-1.1-0.8-2.2-1.1-3.3c-1-4-2.8-4.6-6.7-2.6c-26.7,13.8-49.7,10.4-71.3-10.4c-17.7-17-28.9-38.2-38.8-60.1
				c-12.8-28.4-22.8-57.9-31.6-87.8c-1.5-4.9-3.3-9.8-3.5-15.1c7.3,20.1,13.5,40.7,21.1,60.7c12.4,32.4,25.4,64.5,48,91.6
				c10,12,21.9,21.6,38.1,23.8c14.3,2,26.9-3,38.9-10c2.9-1.7,2.1-4.2,1.5-6.6c-3.3-13.2-4.8-26.5-2.9-40.1c0.5-4,1.4-7.9,2.8-11.6
				c6.9-17.9,21.8-19.4,36-10c9.1,6,11.4,15.1,7.5,26.6c-4.8,14.6-14.6,25.7-25.9,35.5c-7.4,6.4-7.6,6.3-4.4,15.4
				c8.8,24.8,22.6,46.4,42.3,63.9c25.2,22.2,54.9,31.4,88.1,29.4c6.5-0.4,13-1,19.3-2.2C329.6,442.3,331,444.4,331.9,448.7z
				 M199.7,292.9c0.8-8.4-3.3-13.7-11.8-16c-8.1-2.3-14,0.3-17.8,7.8c-1.4,2.8-2.3,5.9-2.9,9c-2,10.6-1.3,21.2,0.7,32.4
				c0.3,1.3,0.8,3.3,1.1,5.2c0.7,4.1,2.2,4.1,5.1,1.5c5.3-4.6,10.2-9.6,14.4-15.2C194.1,310.3,198.9,302.4,199.7,292.9z"/>
			<path class="st0" d="M311.6,460.8c-7.4,2.3-14.9,2.1-22.3,1.5c-31.1-2.6-59.8-12.4-87.2-27c-14.3-7.6-29.7-12.8-45.9-14.7
				c-8-0.9-15.9-0.2-23.6,2.3c-20.9,6.8-28.3,34.8-13.2,50.7c6.1,6.4,13.7,7.9,22.1,5.6c3.3-0.9,6.1-1.2,7.5,3.1
				c2.3,7,2,7.8-5.5,8.9c-22.9,3.5-42.5-14.8-41.8-39c0.7-23.3,17.7-39.3,42.1-39.6c20.3-0.2,38.7,6.5,56.1,16
				c18.9,10.3,38.1,19.9,59,25.5c15.2,4.1,30.5,6.9,46.3,6.6C307.3,460.8,309.5,460.8,311.6,460.8z"/>
		</g>
	</g>
</g>
<g>
	<g id="XMLID_2_">
		<g>
			<path class="st0" d="M1193.8,215.3c6.2-9,14.8-15.8,21.5-24.2c18.5-23,42.2-38.2,70.5-45.8c40.2-10.7,78.4-3.7,114.4,15.8
				c34.8,18.9,60.4,46.9,77.4,82.5c22.1,46.3,25.5,94.2,10.9,143.5c-8.7,29.2-23.8,54.5-44.2,76.9c-9.3,10.2-19.8,19.1-30.6,27.7
				c11.7-4,22.7-9.3,33.2-15.5c27.1-16.1,50.1-36.8,69-62.1c30.6-41,46-87.2,46.8-138.1c0.8-54.4-15.7-103.4-48.3-146.8
				c-24.5-32.5-54.9-58-94.1-70.5c-46.1-14.7-89.9-8.2-129.9,19.7c-23.2,16.2-39.3,38.1-49.7,64.3c-3.1,8-5.8,16.2-8.1,24.5
				c1.2-7.4,2.5-14.7,4.9-21.9c19.2-56.3,74.3-97.4,133.8-99.6c9.2-0.3,18.3,0.6,27.4,0.5c7.8,1.7,15.6,3.4,23.4,5.1
				c1,0.5,2,1.3,3.1,1.6c12.9,4.2,25.1,10,36.7,16.8c37.4,21.9,65.1,53.1,85,91.3c32.4,62.2,37.7,127.1,16.6,193.8
				c-13.3,42.2-37.1,78-69.9,107.7c-4,3.6-8,7.1-12.7,11.2c1.6-0.1,2.2-0.1,2.9-0.2c31-5.2,61.5-3.8,90.9,8
				c39.4,15.7,68.4,42.3,83.7,82.3c11.7,30.5,11.1,60.7-6.9,89.2c-4.5,7.1-9.7,13.6-16.9,19.3c0.2-1.1,0.1-1.5,0.3-1.7
				c1-1.1,2-2.3,3-3.3c14.3-15.2,21.8-33.4,23.2-54c2-31.1-9.1-57.9-29-81.2c-27.2-31.9-62.5-47.8-104-50.2
				c-30.4-1.7-59.4,4.2-86.7,17.7c-17.5,8.7-35.5,16-54.4,21.1c-27.8,7.4-56.1,9.5-84.7,7.7c-7.7-0.5-10.5,0.9-8.1-9.4
				c0.6-2.7,0.7-5.6,1-8.4c0.4-3.7,2.2-5.1,6-4.6c3.8,0.5,7.7,0.6,11.5,0.3c36.3-2.4,69.6-13.5,98.3-36.4
				c46.2-37,69.7-85.3,70.1-144.4c0.3-41.6-13.3-78.9-38.8-111.7c-22.7-29.1-51.7-49.4-87.6-58.9c-27-7.1-54.1-6.3-80.7,3.2
				c-10.8,3.9-20.9,8.9-30.3,16.2c1.7,0.6,2.7-0.2,3.7-0.6c25.2-9.9,51-11,77.1-5.3c24.7,5.5,47.2,16.4,66.9,32.4
				c42.5,34.5,62.5,79.4,61,133.9c-0.2,8.1-0.6,16.3-3.7,24.1c-0.1-2.8,0-5.6,0.3-8.4c3.6-36.8-4-71.2-24.3-102
				c-28.1-42.6-67.8-67.3-119-71.4c-29.6-2.4-57,5.2-80,24.7c-16.9,14.3-27.7,32-28.8,55c-1.2,27,6.2,51.2,22.5,72.4
				c13.9,18,31.9,31,53.7,37.2c17.3,4.9,35.2,4.9,53,0.7c7.2-1.7,14.2-4,21.2-6.3c-26.5,13.1-54.1,15.5-82,5.6
				c-42-14.9-65.8-45.6-74.3-88.9c0.1,20.9,6.1,39.9,17.9,57.1c5.9,8.5,12.8,16.2,21.3,22.3c2.2,1.6,2.5,3.2,0.9,5.4
				c-2.5,3.3-5.1,6.6-7.1,10.3c-2.3,4.3-4.4,4.2-7.9,1.2c-21.6-18.4-35.4-41.3-41.3-69c-2.3-10.7-2.3-21.5-2.4-32.3
				c2.1-9.4,4.1-18.9,6.2-28.3C1183.2,234.1,1187.6,224.2,1193.8,215.3z"/>
			<path class="st0" d="M1524,569.9c1.9,2.8,1.8,4.2-1,6.4c-15.2,12-21.2,28.2-20.9,47c0.9,44,37.7,88.1,86.4,90.3
				c27.1,1.2,52-5.5,72.1-24.9c17.5-16.9,25.8-38.5,26.8-62.3c2.4-57-20.3-101-69.7-130.7c-1.5-0.9-3.4-1.4-4.4-3.1
				c0.4-0.1,0.7-0.3,0.9-0.2c0.8,0.2,1.6,0.5,2.3,0.9c13.1,5.4,24.5,13.5,34.4,23.6c31.9,32.3,47.1,71.2,42.6,116.6
				c-4.1,41.7-26.3,70.2-66,84.7c-14.6,5.3-29.8,6.9-45.2,6.7c-8.8-1.9-17.6-3.8-26.4-5.7c-1.9-1-3.8-2-5.8-2.9
				c-38-18.6-59.5-49-63.2-91c-1.9-21.7,4.9-41.1,20.8-56.7C1517.1,559.5,1517,559.6,1524,569.9z"/>
			<path class="st0" d="M1536.1,443.3c6.4,1.2,12.9,1.8,19.3,2.2c33.3,1.9,63-7.2,88.1-29.4c19.8-17.5,33.5-39.1,42.3-63.9
				c3.2-9.1,3-9-4.4-15.4c-11.3-9.8-21.1-20.9-25.9-35.5c-3.8-11.5-1.5-20.6,7.5-26.6c14.2-9.5,29.1-7.9,36,10
				c1.5,3.7,2.3,7.7,2.8,11.6c1.8,13.6,0.4,26.9-2.9,40.1c-0.6,2.4-1.4,5,1.5,6.6c12,7,24.6,12,38.9,10
				c16.2-2.3,28.1-11.8,38.1-23.8c22.5-27.1,35.5-59.2,48-91.6c7.7-20,13.8-40.6,21.1-60.7c-0.3,5.3-2.1,10.1-3.5,15.1
				c-8.8,29.9-18.8,59.4-31.6,87.8c-9.9,21.9-21.1,43.1-38.8,60.1c-21.6,20.7-44.6,24.2-71.3,10.4c-3.9-2-5.7-1.4-6.7,2.6
				c-0.3,1.1-0.7,2.2-1.1,3.3c-11.4,31.6-29.8,58.1-57.5,77.4c-31,21.6-65.5,27.4-102.5,21.1c-3.6-0.6-5.9-1.2-4.9-5.9
				C1529.7,444.4,1531.1,442.3,1536.1,443.3z M1672.2,317.6c4.2,5.6,9.1,10.6,14.4,15.2c2.9,2.6,4.5,2.5,5.1-1.5
				c0.4-2,0.8-3.9,1.1-5.2c2-11.2,2.7-21.8,0.7-32.4c-0.6-3.1-1.4-6.2-2.9-9c-3.8-7.5-9.7-10.1-17.8-7.8c-8.5,2.4-12.6,7.7-11.8,16
				C1661.8,302.4,1666.6,310.3,1672.2,317.6z"/>
			<path class="st0" d="M1555.5,460.8c15.8,0.4,31.1-2.5,46.3-6.6c21-5.6,40.1-15.3,59-25.5c17.4-9.4,35.9-16.2,56.1-16
				c24.4,0.2,41.4,16.3,42.1,39.6c0.7,24.2-18.9,42.5-41.8,39c-7.4-1.2-7.8-1.9-5.5-8.9c1.4-4.3,4.3-4,7.5-3.1
				c8.4,2.2,16,0.8,22.1-5.6c15.1-16,7.6-43.9-13.2-50.7c-7.8-2.5-15.6-3.3-23.6-2.3c-16.3,1.9-31.6,7.1-45.9,14.7
				c-27.4,14.6-56.2,24.4-87.2,27c-7.4,0.6-14.9,0.8-22.3-1.5C1551.2,460.8,1553.4,460.8,1555.5,460.8z"/>
		</g>
	</g>
</g>
</svg>
