<?xml version="1.0" encoding="utf-8"?>
<!-- Generator: Adobe Illustrator 23.0.1, SVG Export Plug-In . SVG Version: 6.00 Build 0)  -->
<svg version="1.1" id="Layer_1" xmlns="http://www.w3.org/2000/svg" xmlns:xlink="http://www.w3.org/1999/xlink" x="0px" y="0px"
	 viewBox="0 0 214 1142" style="enable-background:new 0 0 214 1142;" xml:space="preserve">
<style type="text/css">
	.st0{fill:#FFCF4C;}
</style>
<g>
	<path class="st0" d="M148.06,31.87c5.72-0.05,3.54,6.07,3.54,9.54c0.03,321.99-0.05,643.95-0.1,965.94
		c0,28.89,0.12,57.78,0.17,86.68c0,2.09,0.03,4.19-0.09,6.28c-0.14,2.13-0.37,4.41-3.23,4.55c-3.3,0.14-3.73-2.41-3.72-4.78
		c0.09-23.29-0.09-46.59,0.54-69.86c0.42-15.37,0.77-30.72-0.07-46.07c-0.19-3.49-0.47-6.98-0.47-10.47
		c-0.02-68.07-0.1-136.12-0.05-204.17c0.02-26.76,0.07-53.52,0.14-80.3c0.05-21.18,0.94-42.34-0.1-63.5
		c-0.12-2.53-0.02-5.08-0.02-9.7c-4.1,4.24-6.44,7.15-9.26,9.51c-8.9,7.36-23.74,6.09-32.59-2.6c-7.34-7.22-8.13-19.99-1.74-28.15
		c7.13-9.14,19.73-9.84,25.82-1.43c5.11,7.06,1.55,17.23-6.38,18.04c-3.44,0.37-6.52-0.59-8.63-3.49
		c-2.91-3.99-1.81-7.87,0.65-11.95c-5.46,0.8-7.27,4.81-8.18,9.28c-1.4,6.93,2.16,13.34,8.77,16.62c6.94,3.44,14.98,1.97,20.55-3.73
		c9.77-10,8.3-27.53-3-35.85c-12.89-9.49-31.31-9.87-42.34-0.78c-3.65,2.98-7.06,6.05-0.77,10.12c2.86,1.85,4.27,5.06,3.56,8.57
		c-0.72,3.47-3.96,2.55-6.31,3c-4.73,0.94-6.96,4.33-8.51,8.41c-4.8,12.73,1.36,29.78,13.15,36.58c9.23,5.3,17.95,4.17,26.29-3.23
		c2.62-2.32,4.85-6.86,9.21-4.34c4.62,2.69,4.83,7.73,4.06,12.49c-0.75,4.68-3.52,8.39-7.83,10.07c-6.77,2.62-4.59,4.55-0.49,8.02
		c11.93,10.15,18.8,22.9,18.47,39.01c-0.23,11.02-4.69,20.24-11.83,28.38c-5.69,6.49-11.57,12.89-13.78,21.58
		c-2.72,10.57,4.74,18.82,15.04,16.69c0.24-1.45-0.92-1.43-1.74-1.6c-4.12-0.84-6.72-3.24-7.31-7.4c-0.61-4.13,1.31-7.27,4.68-9.47
		c3.73-2.42,7.64-2.04,11.2,0.28c4.2,2.76,6.12,6.51,6.12,10.89c0,1.4-0.19,2.86-0.58,4.38c-1.69,6.72-7.95,11.44-14.93,11.51
		c-11.86,0.12-21.28-10.96-20.06-23.67c0.66-6.93,3.42-13,7.78-18.39c1.13-1.38,3.21-2.7,2.39-4.69c-0.89-2.16-3.28-1.1-5.02-1.19
		c-13.19-0.68-20.65-8.91-19.76-21.86c0.68-9.72,9.44-17.15,19.1-16.31c5.34,0.45,8.84,3.33,9.73,8.44
		c0.89,5.11-1.4,9.25-6.28,11.25c-5.16,2.13-8.36-0.87-10.82-5.02c-0.35-0.59-0.87-1.06-1.71-2.08c-2.91,3.04-2.95,6.18-1.59,9.59
		c1.87,4.68,5.04,7.75,10.19,8.51c9.33,1.4,18.4-5.16,21.21-15.39c4.03-14.67-7.41-36.93-21.54-42.44c-4.13-1.62-4.05,1.2-4.9,3.56
		c-2.74,7.55-9.12,11.04-15.68,8.72c-2.91-1.03-5.37-2.86-4.4-6.11c3.37-11.25-3.44-19.31-8.69-27.58
		c-8.32-13.14-11.98-27.09-9.98-42.55c2.02-15.61,10.14-27.34,23.22-35.62c4.55-2.9,6.61-4.43,0.47-8.11
		c-27.95-16.8-29.79-51.53-15.77-74.98c3.7-6.19,7.87-12.11,10.4-18.96c0.99-2.67,1.81-5.34,1.13-8.16
		c-0.96-4.03-1.99-8.22,3.3-9.82c4.92-1.48,9.73-1.06,13.45,3.17c0.59,0.7,1.03,1.55,1.47,2.37c4.26,8.09,4.73,8.32,11.77,2.42
		c10.45-8.72,17.74-19.12,16.48-33.65c-0.8-9.26-6.91-17.5-15.11-20.01c-6.05-1.83-11.16,0.05-14.95,4.85
		c-3.16,4.03-4.47,8.57-1.22,13.1c1.73,0.23,2.06-0.73,2.42-1.55c1.71-3.99,4.27-6.82,9.04-5.93c4.69,0.85,7.31,4.01,7.99,8.58
		c0.68,4.69-1.45,8.15-5.51,10.36c-6.11,3.33-15.21,0.7-19.71-5.86c-4.66-6.77-4.78-13.99-1.01-21.16
		c3.73-7.1,10.1-10.01,17.86-10.19c1.8-0.05,3.63,0.37,6.18,0.65c-3.3-5.37-6.66-10-9.12-15.04c-5.15-10.62-2.76-22.45,5.6-29.25
		c5.06-4.12,10.78-5.29,17.03-3.04c5.84,2.09,8.98,6.45,9.86,12.46c0.12,0.78,0.17,1.55,0.17,2.3c0,6.84-4.69,12.05-11.39,12.37
		c-5.39,0.24-9.12-2.04-10.24-7.41c-1.03-4.99,0.99-8.62,5.91-10.45c1.01-0.38,1.99-0.85,4.43-1.88c-5.53-2.02-8.93-0.77-11.97,1.95
		c-4.31,3.86-6.3,8.69-4.92,14.44c1.8,7.47,6.3,13.36,11.37,18.94c16.52,18.16,19.14,38.97,7.41,57.51
		c-4.29,6.8-10.31,11.95-16.33,17.22c0.68,2.69,3.31,2.2,4.97,3.14c6.94,3.98,10.24,11.29,8.01,18.32
		c-1.67,5.23-4.99,6.56-9.59,3.75c-0.98-0.61-1.99-1.31-2.7-2.2c-10-12.35-30.54-9.09-38.29,8.08c-2.95,6.56-4.13,13.38-2.97,20.44
		c0.96,5.81,3.68,10.55,9.73,12.54c2.27,0.75,5.62-0.3,6.21,3.23c0.66,3.86-1.12,6.89-4.38,8.79c-3.66,2.15-3.73,4.57-0.87,7.19
		c9.35,8.62,20.22,11.09,32.38,7.41c11.18-3.38,19.64-9.58,21.7-22.03c2.44-14.86-8.86-27.11-22.94-24.84
		c-6.25,0.99-11.86,6.26-12.68,12.35c-0.85,6.38,0.4,11.95,7.38,15.25c0.12-1.05,0.49-1.8,0.24-2.2c-2.93-4.8-2.22-8.97,2.29-12.21
		c3.92-2.84,8.06-2.53,11.44,0.85c4.05,4.03,4.95,9,2.18,14.09c-4.38,8.06-14.48,9.89-22.36,4.31
		c-12.52-8.86-11.37-27.91,2.15-35.81c12.82-7.48,24.37-4.54,36.48,9.93c1.43-16.8,2.29-32.86,1.31-49.02
		c-0.24-4.17-0.66-8.36-0.66-12.54c-0.02-30.51-0.05-61-0.1-91.51c-0.1-65.01-0.17-130.05,0.26-195.04
		c0.28-43.54-1.24-87.06-0.23-130.6C144.67,38.03,142.39,31.92,148.06,31.87z"/>
	<path class="st0" d="M61.85,554.39c0.44-0.85,0.75-1.76,1.26-2.98c1.67,1.85,2.41,2.44,2.84,3.19c2.69,4.48,6.23,8.13,10.57,10.97
		c3.19,2.08,2.79,3.79-0.17,5.63c-4.24,2.62-7.57,6.11-10,10.5c-1.67,3.02-3.31,2.69-4.99-0.16c-2.49-4.29-5.83-7.83-10.08-10.45
		c-2.51-1.54-3.4-3.3-0.31-5.18C55.62,563.04,59.3,559.24,61.85,554.39z"/>
</g>
</svg>
