<?xml version="1.0" encoding="utf-8"?>
<!-- Generator: Adobe Illustrator 23.0.1, SVG Export Plug-In . SVG Version: 6.00 Build 0)  -->
<svg version="1.1" id="Layer_1" xmlns="http://www.w3.org/2000/svg" xmlns:xlink="http://www.w3.org/1999/xlink" x="0px" y="0px"
	 viewBox="0 0 1152 230" style="enable-background:new 0 0 1152 230;" xml:space="preserve">
<style type="text/css">
	.st0{fill:#FFCF4C;}
</style>
<g>
	<path class="st0" d="M1112,139.92c0.05,5.72-6.07,3.54-9.54,3.54c-321.99,0.03-643.95-0.05-965.94-0.1
		c-28.89,0-57.78,0.12-86.68,0.17c-2.09,0-4.19,0.03-6.28-0.09c-2.13-0.14-4.41-0.37-4.55-3.23c-0.14-3.3,2.41-3.73,4.78-3.72
		c23.29,0.09,46.59-0.09,69.86,0.54c15.37,0.42,30.72,0.77,46.07-0.07c3.49-0.19,6.98-0.47,10.47-0.47
		c68.07-0.02,136.12-0.1,204.17-0.05c26.76,0.02,53.52,0.07,80.3,0.14c21.18,0.05,42.34,0.94,63.5-0.1c2.53-0.12,5.08-0.02,9.7-0.02
		c-4.24-4.1-7.15-6.44-9.51-9.26c-7.36-8.9-6.09-23.74,2.6-32.59c7.22-7.34,19.99-8.13,28.15-1.74c9.14,7.13,9.84,19.73,1.43,25.82
		c-7.06,5.11-17.23,1.55-18.04-6.38c-0.37-3.44,0.59-6.52,3.49-8.63c3.99-2.91,7.87-1.81,11.95,0.65c-0.8-5.46-4.81-7.27-9.28-8.18
		c-6.93-1.4-13.34,2.16-16.62,8.77c-3.44,6.94-1.97,14.98,3.73,20.55c10,9.77,27.53,8.3,35.85-3c9.49-12.89,9.87-31.31,0.78-42.34
		c-2.98-3.65-6.05-7.06-10.12-0.77c-1.85,2.86-5.06,4.27-8.57,3.56c-3.47-0.72-2.55-3.96-3-6.31c-0.94-4.73-4.33-6.96-8.41-8.51
		c-12.73-4.8-29.78,1.36-36.58,13.15c-5.3,9.23-4.17,17.95,3.23,26.29c2.32,2.62,6.86,4.85,4.34,9.21
		c-2.69,4.62-7.73,4.83-12.49,4.06c-4.68-0.75-8.39-3.52-10.07-7.83c-2.62-6.77-4.55-4.59-8.02-0.49
		c-10.15,11.93-22.9,18.8-39.01,18.47c-11.02-0.23-20.24-4.69-28.38-11.83c-6.49-5.69-12.89-11.57-21.58-13.78
		c-10.57-2.72-18.82,4.74-16.69,15.04c1.45,0.24,1.43-0.92,1.6-1.74c0.84-4.12,3.24-6.72,7.4-7.31c4.13-0.61,7.27,1.31,9.47,4.68
		c2.42,3.73,2.04,7.64-0.28,11.2c-2.76,4.2-6.51,6.12-10.89,6.12c-1.4,0-2.86-0.19-4.38-0.58c-6.72-1.69-11.44-7.95-11.51-14.93
		c-0.12-11.86,10.95-21.28,23.67-20.06c6.93,0.66,13,3.42,18.39,7.78c1.38,1.13,2.7,3.21,4.69,2.39c2.16-0.89,1.1-3.28,1.19-5.02
		c0.68-13.19,8.91-20.65,21.86-19.76c9.72,0.68,17.15,9.44,16.31,19.1c-0.45,5.34-3.33,8.84-8.44,9.73
		c-5.11,0.89-9.25-1.4-11.25-6.28c-2.13-5.16,0.87-8.36,5.02-10.82c0.59-0.35,1.06-0.87,2.08-1.71c-3.04-2.91-6.18-2.95-9.59-1.59
		c-4.68,1.87-7.75,5.04-8.51,10.19c-1.4,9.33,5.16,18.4,15.39,21.21c14.67,4.03,36.93-7.41,42.44-21.54c1.62-4.13-1.2-4.05-3.56-4.9
		c-7.55-2.74-11.04-9.12-8.72-15.68c1.03-2.91,2.86-5.37,6.11-4.4c11.25,3.37,19.31-3.44,27.58-8.69
		c13.14-8.32,27.09-11.98,42.55-9.98c15.61,2.02,27.34,10.14,35.62,23.22c2.9,4.55,4.43,6.61,8.11,0.47
		c16.8-27.95,51.53-29.79,74.98-15.77c6.19,3.7,12.11,7.87,18.96,10.4c2.67,0.99,5.34,1.81,8.16,1.13c4.03-0.96,8.22-1.99,9.82,3.3
		c1.48,4.92,1.06,9.73-3.17,13.45c-0.7,0.59-1.55,1.03-2.37,1.47c-8.09,4.26-8.32,4.73-2.42,11.77
		c8.72,10.45,19.12,17.74,33.65,16.48c9.26-0.8,17.5-6.91,20.01-15.11c1.83-6.05-0.05-11.16-4.85-14.95
		c-4.03-3.16-8.57-4.47-13.1-1.22c-0.23,1.73,0.73,2.06,1.55,2.42c3.99,1.71,6.82,4.27,5.93,9.04c-0.85,4.69-4.01,7.31-8.58,7.99
		c-4.69,0.68-8.15-1.45-10.36-5.51c-3.33-6.11-0.7-15.21,5.86-19.71c6.77-4.66,13.99-4.78,21.16-1.01
		c7.1,3.73,10.01,10.1,10.19,17.86c0.05,1.8-0.37,3.63-0.65,6.18c5.37-3.3,10-6.66,15.04-9.12c10.62-5.15,22.45-2.76,29.25,5.6
		c4.12,5.06,5.29,10.78,3.04,17.03c-2.09,5.84-6.45,8.98-12.46,9.86c-0.78,0.12-1.55,0.17-2.3,0.17c-6.84,0-12.05-4.69-12.37-11.39
		c-0.24-5.39,2.04-9.12,7.41-10.24c4.99-1.03,8.62,0.99,10.45,5.91c0.38,1.01,0.85,1.99,1.88,4.43c2.02-5.53,0.77-8.93-1.95-11.97
		c-3.86-4.31-8.69-6.3-14.44-4.92c-7.47,1.8-13.36,6.3-18.94,11.37c-18.16,16.52-38.97,19.14-57.51,7.41
		c-6.8-4.29-11.95-10.31-17.22-16.33c-2.69,0.68-2.2,3.31-3.14,4.97c-3.98,6.94-11.29,10.24-18.32,8.01
		c-5.23-1.67-6.56-4.99-3.75-9.59c0.61-0.98,1.31-1.99,2.2-2.7c12.35-10,9.09-30.54-8.08-38.29c-6.56-2.95-13.38-4.13-20.44-2.97
		c-5.81,0.96-10.55,3.68-12.54,9.73c-0.75,2.27,0.3,5.62-3.23,6.21c-3.86,0.66-6.89-1.12-8.79-4.38c-2.15-3.66-4.57-3.73-7.19-0.87
		c-8.62,9.35-11.09,20.22-7.41,32.38c3.38,11.18,9.58,19.64,22.03,21.7c14.86,2.44,27.11-8.86,24.84-22.94
		c-0.99-6.25-6.26-11.86-12.35-12.68c-6.38-0.85-11.95,0.4-15.25,7.38c1.05,0.12,1.8,0.49,2.2,0.24c4.8-2.93,8.97-2.22,12.21,2.29
		c2.84,3.92,2.53,8.06-0.85,11.44c-4.03,4.05-9,4.95-14.09,2.18c-8.06-4.38-9.89-14.48-4.31-22.36
		c8.86-12.52,27.91-11.37,35.81,2.15c7.48,12.82,4.54,24.37-9.93,36.48c16.8,1.43,32.86,2.29,49.02,1.31
		c4.17-0.24,8.36-0.66,12.54-0.66c30.51-0.02,61-0.05,91.51-0.1c65.01-0.1,130.05-0.17,195.04,0.26
		c43.54,0.28,87.06-1.24,130.6-0.23C1105.84,136.54,1111.95,134.25,1112,139.92z"/>
	<path class="st0" d="M589.48,53.71c0.85,0.44,1.76,0.75,2.98,1.26c-1.85,1.67-2.44,2.41-3.19,2.84
		c-4.48,2.69-8.13,6.23-10.97,10.57c-2.08,3.19-3.79,2.79-5.63-0.17c-2.62-4.24-6.11-7.57-10.5-10c-3.02-1.67-2.69-3.31,0.16-4.99
		c4.29-2.49,7.83-5.83,10.45-10.08c1.54-2.51,3.3-3.4,5.18-0.31C580.82,47.49,584.63,51.17,589.48,53.71z"/>
</g>
</svg>
