<?xml version="1.0" encoding="utf-8"?>
<!-- Generator: Adobe Illustrator 23.0.1, SVG Export Plug-In . SVG Version: 6.00 Build 0)  -->
<svg version="1.1" id="Layer_1" xmlns="http://www.w3.org/2000/svg" xmlns:xlink="http://www.w3.org/1999/xlink" x="0px" y="0px"
	 viewBox="0 0 1105 574" style="enable-background:new 0 0 1105 574;" xml:space="preserve">
<style type="text/css">
	.st0{fill:#FFCF4C;}
</style>
<g>
	<path class="st0" d="M1066,182.69c0.05,6.87-6.7,3.88-10.39,3.88c-341.62,0.15-683.25,0.13-1024.87,0c-3.5,0-9.94,2.55-9.74-3.84
		c0.19-5.99,6.54-3.45,10.13-3.47c106.01-0.15,212.02-0.09,318.03-0.15c2.84,0,5.83,0.81,8.58-0.84c-2.45-5.01-3.94-9.92-4.54-14.58
		l2.92-0.31c0.53,4.24,2.89,7.77,6.73,10.28c3.64,2.39,7.51,3.32,11.3-1.43c-3.79-1.93-7.87-3.75-5.85-9.07
		c1.39-3.64,4.56-4.94,7.94-3.82c5.08,1.69,6.03,6.1,5.35,11.2c-0.07,0.5-0.1,1.03-0.32,1.43c-4.27,7.75,0.56,7.27,5.42,7.25
		c37.92-0.06,75.84-0.86,113.73,0.35c20.92,0.66,38.01-19.43,40.23-41.58c0.08-0.79,0.19-1.65,0.22-2.48l4.54,0.13
		c-0.46,22.33,18.46,43.56,39.06,43.6c38.8,0.04,77.63,0,116.43,0c2.23,0,4.45,0,7.8,0c-2.77-5.84-5.61-10.03-3.33-15.24
		c1.38-3.18,3.72-5,7-4.77c2.89,0.2,5.41,1.6,6.27,4.79c0.92,3.47-0.82,5.53-3.82,6.61c-3.35,1.19-1.61,2.72-0.07,3.97
		c2.02,1.62,4.23,1.3,6.49,0.48c8.21-2.98,11.54-12.32,7.61-22.61c-4.23-11.09-12.37-17.21-22.96-19.83
		c-8.72-2.17-17.08-2.22-25.1-0.48l-0.82-4.21c7.77-1.71,15.81-1.87,24.19-0.24c10.45,2.06,19.34,6.85,25.68,16.38
		c7.82,11.77,7.39,23.16-1.9,34.03c3.37,1.82,6.34,1.05,9.2,1.05c106.23,0.02,212.46-0.06,318.69,0.07
		C1059.46,179.24,1065.95,176.72,1066,182.69z"/>
	<path class="st0" d="M680,127.94l0.82,4.21c-8.21,1.78-16.08,5.44-23.66,10.63c-7.63,5.27-15.01,11.04-22.28,16.88
		c-9.59,7.7-21.72,10.56-33.5,10.1l0.07-3.99c4.86,0.2,9.86-0.31,14.96-1.62c14.67-3.75,26.12-20.2,25.31-35.74
		c-0.61-11.74-9.16-21.93-19.9-23.69c-10.35-1.69-19.65,8.03-18.1,19.04c0.75,5.34,3.54,8.76,8.77,7.92
		c5.18-0.83,6.42-4.7,5.01-9.88c-0.42-1.52-1.72-3.58,0.1-4.63c1.85-1.05,3.38,0.84,4.73,2.09c5.22,4.92,5.95,13.5,1.7,19.27
		c-4.73,6.41-15.06,7.27-21.59,1.8c-8.36-7.02-9.55-20.24-2.67-29.6c6.63-9.04,17.39-12.75,27.42-9.46
		c10.4,3.42,17.83,13.68,18.75,25.51c0.46,6.15-1.1,12.01-2.53,19.36c5.07-3.31,9.01-5.99,13.05-8.45
		C664.04,133.07,671.87,129.67,680,127.94z"/>
	<path class="st0" d="M601.44,165.78l-0.07,3.99c-13.33-0.51-26.18-5.31-34.3-12.21c-6.9-5.86-11.32-13.28-13.55-22.31
		c-0.78-3.12-2.45-4.57-5.46-4c-2.33,0.46-2.58,2.28-2.63,4.41l-4.54-0.13c0.05-1.84-0.37-3.56-2.77-4.15
		c-3.6-0.86-4.57,1.8-5.34,4.98c-2.94,12.21-10.2,20.81-20.5,26.04c-5.83,2.96-11.61,5.12-17.34,6.39l-0.8-4.24
		c7.73-1.71,15.09-5.22,22.11-10.08c5.27-3.64,8.89-9.05,11.08-15.46c1.27-3.69,2.26-7.16-3.09-8.21c-4.91-0.96-3.55-5.47-3.71-8.93
		c-0.14-3.31,0.19-6.76,4.18-7.11c3.5-0.31,4.42-2,4.42-4.61l3.84-0.18c0,1.1,0.14,2.2,0.99,3.16c2.28-0.15,1.38-2.08,1.36-3.2
		c-0.03-2.66-0.15-5.29-0.34-7.9l3.91-0.42c0.37,3.95,0.85,7.86,1.7,11.77c0-0.09,0-0.17,0-0.26l4.93,0.04
		c1.84-1.52,2.11-3.42,2.11-5.34l4.1,0.04c-0.03,2,0,4.02,0.07,6.08c1.68-1.21,1.61-2.53,1.56-3.73l3.84-0.17
		c0.03,2.55,1.21,4.61,5.81,5.2c3.77,0.5,2.57,5.14,2.63,8.15c0.07,3.1,0.48,6.85-3.72,7.38c-4.57,0.55-4.18,3.36-3.09,6.8
		c2.45,7.7,6.7,13.96,13.16,18.14C581.33,161.75,591.14,165.35,601.44,165.78z"/>
	<path class="st0" d="M581.91,64.84c3.37,4.65-0.85,7.64-4.13,9.73c-10.56,6.78-17.39,16.36-19.65,29.46
		c-0.36,2-0.95,4.13-0.92,5.99l-3.84,0.17c-0.03-0.33-0.05-0.66-0.03-0.95c0.93-16.11,7.12-29.71,16.88-41.63
		c0.46-0.55,0.93-1.08,1.48-1.52C574.92,63.59,578.85,60.6,581.91,64.84z"/>
	<path class="st0" d="M573.15,42.66c2.43,2.41,2.09,5.23,0.34,7.93c-0.78,1.19-1.75,2.26-2.7,3.31
		c-13.63,15.08-18.88,33.22-19.05,53.94l-4.1-0.04c0-1.05-0.08-2.11-0.03-3.14c0.92-18.79,3.84-37.02,12.37-53.77
		c1.55-3.01,3.11-6.02,5.74-8.12C568.16,40.84,570.74,40.25,573.15,42.66z"/>
	<path class="st0" d="M543.51,15.73c5.24,0.07,7.19,4.24,7.04,8.96c-0.29,8.3-1.43,16.57-1.97,24.87
		c-1.34,21.16-2.57,42.33-3.04,63.58l-4.93-0.04c0.02-9.37,0.49-18.77-0.1-28.08c-1.17-18.57-2.11-37.17-4.61-55.63
		c-0.22-1.67-0.39-3.45-0.14-5.11C536.52,19.59,538.41,15.66,543.51,15.73z"/>
	<path class="st0" d="M538.9,101.59l-3.91,0.42c-1.36-18.2-6.76-34.71-19.55-48.25c-2.91-3.07-6.22-6.67-2.16-11.28
		c2.82-3.2,8.11-1.25,11.22,4.3c8.41,14.97,12.53,31.42,13.89,48.78C538.55,97.57,538.72,99.59,538.9,101.59z"/>
	<path class="st0" d="M532.99,108.16c0.02,0.59-0.02,1.18,0,1.78l-3.84,0.18c0-0.75-0.07-1.6-0.19-2.5
		c-1.73-13.66-7.34-24.54-18.46-31.83c-3.21-2.09-7.19-3.84-6.93-9.05c0.1-1.85,1.31-3.14,3.01-3.58c4.47-1.16,7.31,1.8,9.98,4.89
		C526.34,79.35,532.36,92.46,532.99,108.16z"/>
	<path class="st0" d="M494.15,164.53l0.8,4.24c-15.84,3.56-31.27,0.37-46.23-11.5c-11.47-9.09-22.62-18.95-36.78-23.31
		c-11.66-3.6-23.23-4.08-34.86-0.15c-11.17,3.76-18.1,11.94-20.67,24.13c-0.41,1.91-0.48,3.73-0.27,5.42l-2.92,0.31
		c-2.24-17.76,8.53-32.05,28.78-36.05c20.06-3.95,37.61,2.53,54.24,13.87c2.04,1.38,3.59,3.76,6.78,4
		c-0.82-4.5-1.78-8.72-2.36-13.02c-1.89-14.44,8.38-29.16,22.33-32.21c11.88-2.61,24.95,6.57,28.13,19.76
		c3.16,13.15-7.21,25.75-19.55,23.76c-6.22-0.99-11.47-6.92-11.76-13.33c-0.31-6.54,3.4-11.81,9.65-13.7c1.21,1.36,0.31,2.74,0,4.1
		c-0.82,3.43-1.29,6.89,1.58,9.51c2.11,1.93,4.66,2.06,7.05,0.77c3.55-1.89,5.37-5.16,5.42-9.48c0.1-9.09-8.57-17.61-17.23-16.97
		c-13.63,0.99-23.86,15.67-21.06,30.19c3.11,16.12,13.16,26.85,28.27,29.84C480.66,166.14,487.54,166,494.15,164.53z"/>
	<g>
		<path class="st0" d="M1066,377.04c0.05-6.87-6.7-3.88-10.39-3.88c-341.62-0.15-683.25-0.13-1024.87,0c-3.5,0-9.94-2.55-9.74,3.84
			c0.19,5.99,6.54,3.45,10.13,3.47c106.01,0.15,212.02,0.09,318.03,0.15c2.84,0,5.83-0.81,8.58,0.84
			c-2.45,5.01-3.94,9.92-4.54,14.58l2.92,0.31c0.53-4.24,2.89-7.77,6.73-10.28c3.64-2.39,7.51-3.32,11.3,1.43
			c-3.79,1.93-7.87,3.75-5.85,9.07c1.39,3.64,4.56,4.94,7.94,3.82c5.08-1.69,6.03-6.1,5.35-11.2c-0.07-0.5-0.1-1.03-0.32-1.43
			c-4.27-7.75,0.56-7.27,5.42-7.25c37.92,0.06,75.84,0.86,113.73-0.35c20.92-0.66,38.01,19.43,40.23,41.58
			c0.08,0.79,0.19,1.65,0.22,2.48l4.54-0.13c-0.46-22.33,18.46-43.56,39.06-43.6c38.8-0.04,77.63,0,116.43,0c2.23,0,4.45,0,7.8,0
			c-2.77,5.84-5.61,10.03-3.33,15.24c1.38,3.18,3.72,5,7,4.77c2.89-0.2,5.41-1.6,6.27-4.79c0.92-3.47-0.82-5.53-3.82-6.61
			c-3.35-1.19-1.61-2.72-0.07-3.97c2.02-1.62,4.23-1.3,6.49-0.48c8.21,2.98,11.54,12.32,7.61,22.61
			c-4.23,11.09-12.37,17.21-22.96,19.83c-8.72,2.17-17.08,2.22-25.1,0.48l-0.82,4.21c7.77,1.71,15.81,1.87,24.19,0.24
			c10.45-2.06,19.34-6.85,25.68-16.38c7.82-11.77,7.39-23.16-1.9-34.03c3.37-1.82,6.34-1.05,9.2-1.05
			c106.23-0.02,212.46,0.06,318.69-0.07C1059.46,380.49,1065.95,383.01,1066,377.04z"/>
		<path class="st0" d="M680,431.79l0.82-4.21c-8.21-1.78-16.08-5.44-23.66-10.63c-7.63-5.27-15.01-11.04-22.28-16.88
			c-9.59-7.7-21.72-10.56-33.5-10.1l0.07,3.99c4.86-0.2,9.86,0.31,14.96,1.62c14.67,3.75,26.12,20.2,25.31,35.74
			c-0.61,11.74-9.16,21.93-19.9,23.69c-10.35,1.69-19.65-8.03-18.1-19.04c0.75-5.34,3.54-8.76,8.77-7.92
			c5.18,0.83,6.42,4.7,5.01,9.88c-0.42,1.52-1.72,3.58,0.1,4.63c1.85,1.05,3.38-0.84,4.73-2.09c5.22-4.92,5.95-13.5,1.7-19.27
			c-4.73-6.41-15.06-7.27-21.59-1.8c-8.36,7.02-9.55,20.24-2.67,29.6c6.63,9.04,17.39,12.75,27.42,9.46
			c10.4-3.42,17.83-13.68,18.75-25.51c0.46-6.15-1.1-12.01-2.53-19.36c5.07,3.31,9.01,5.99,13.05,8.45
			C664.04,426.66,671.87,430.06,680,431.79z"/>
		<path class="st0" d="M601.44,393.95l-0.07-3.99c-13.33,0.51-26.18,5.31-34.3,12.21c-6.9,5.86-11.32,13.28-13.55,22.31
			c-0.78,3.12-2.45,4.57-5.46,4c-2.33-0.46-2.58-2.28-2.63-4.41l-4.54,0.13c0.05,1.84-0.37,3.56-2.77,4.15
			c-3.6,0.86-4.57-1.8-5.34-4.98c-2.94-12.21-10.2-20.81-20.5-26.04c-5.83-2.96-11.61-5.12-17.34-6.39l-0.8,4.24
			c7.73,1.71,15.09,5.22,22.11,10.08c5.27,3.64,8.89,9.05,11.08,15.46c1.27,3.69,2.26,7.16-3.09,8.21
			c-4.91,0.95-3.55,5.47-3.71,8.93c-0.14,3.31,0.19,6.76,4.18,7.11c3.5,0.31,4.42,2,4.42,4.61l3.84,0.18c0-1.1,0.14-2.2,0.99-3.16
			c2.28,0.15,1.38,2.08,1.36,3.2c-0.03,2.66-0.15,5.29-0.34,7.9l3.91,0.42c0.37-3.95,0.85-7.86,1.7-11.77c0,0.09,0,0.17,0,0.26
			l4.93-0.04c1.84,1.52,2.11,3.42,2.11,5.34l4.1-0.04c-0.03-2,0-4.02,0.07-6.08c1.68,1.21,1.61,2.53,1.56,3.73l3.84,0.17
			c0.03-2.55,1.21-4.61,5.81-5.2c3.77-0.5,2.57-5.14,2.63-8.15c0.07-3.1,0.48-6.85-3.72-7.38c-4.57-0.55-4.18-3.36-3.09-6.8
			c2.45-7.7,6.7-13.96,13.16-18.14C581.33,397.98,591.14,394.38,601.44,393.95z"/>
		<path class="st0" d="M581.91,494.89c3.37-4.65-0.85-7.64-4.13-9.73c-10.56-6.78-17.39-16.36-19.65-29.46
			c-0.36-2-0.95-4.13-0.92-5.99l-3.84-0.17c-0.03,0.33-0.05,0.66-0.03,0.95c0.93,16.11,7.12,29.71,16.88,41.63
			c0.46,0.55,0.93,1.08,1.48,1.52C574.92,496.14,578.85,499.13,581.91,494.89z"/>
		<path class="st0" d="M573.15,517.08c2.43-2.41,2.09-5.23,0.34-7.93c-0.78-1.19-1.75-2.26-2.7-3.31
			c-13.63-15.08-18.88-33.22-19.05-53.94l-4.1,0.04c0,1.05-0.08,2.11-0.03,3.14c0.92,18.79,3.84,37.02,12.37,53.77
			c1.55,3.01,3.11,6.02,5.74,8.12C568.16,518.89,570.74,519.48,573.15,517.08z"/>
		<path class="st0" d="M543.51,544c5.24-0.07,7.19-4.24,7.04-8.96c-0.29-8.3-1.43-16.57-1.97-24.87
			c-1.34-21.16-2.57-42.33-3.04-63.58l-4.93,0.04c0.02,9.37,0.49,18.77-0.1,28.08c-1.17,18.57-2.11,37.17-4.61,55.63
			c-0.22,1.67-0.39,3.45-0.14,5.11C536.52,540.14,538.41,544.07,543.51,544z"/>
		<path class="st0" d="M538.9,458.14l-3.91-0.42c-1.36,18.2-6.76,34.71-19.55,48.25c-2.91,3.07-6.22,6.67-2.16,11.28
			c2.82,3.2,8.11,1.25,11.22-4.3c8.41-14.97,12.53-31.42,13.89-48.78C538.55,462.16,538.72,460.14,538.9,458.14z"/>
		<path class="st0" d="M532.99,451.57c0.02-0.59-0.02-1.18,0-1.78l-3.84-0.18c0,0.75-0.07,1.6-0.19,2.5
			c-1.73,13.66-7.34,24.54-18.46,31.83c-3.21,2.09-7.19,3.84-6.93,9.05c0.1,1.85,1.31,3.14,3.01,3.58c4.47,1.16,7.31-1.8,9.98-4.89
			C526.34,480.38,532.36,467.27,532.99,451.57z"/>
		<path class="st0" d="M494.15,395.2l0.8-4.24c-15.84-3.56-31.27-0.37-46.23,11.5c-11.47,9.09-22.62,18.95-36.78,23.31
			c-11.66,3.6-23.23,4.08-34.86,0.15c-11.17-3.76-18.1-11.94-20.67-24.13c-0.41-1.91-0.48-3.73-0.27-5.42l-2.92-0.31
			c-2.24,17.76,8.53,32.05,28.78,36.05c20.06,3.95,37.61-2.53,54.24-13.87c2.04-1.38,3.59-3.76,6.78-4
			c-0.82,4.5-1.78,8.72-2.36,13.02c-1.89,14.44,8.38,29.16,22.33,32.21c11.88,2.61,24.95-6.57,28.13-19.76
			c3.16-13.15-7.21-25.75-19.55-23.76c-6.22,0.99-11.47,6.92-11.76,13.33c-0.31,6.54,3.4,11.81,9.65,13.7c1.21-1.36,0.31-2.74,0-4.1
			c-0.82-3.43-1.29-6.89,1.58-9.51c2.11-1.93,4.66-2.06,7.05-0.77c3.55,1.89,5.37,5.16,5.42,9.48c0.1,9.09-8.57,17.61-17.23,16.97
			c-13.63-0.99-23.86-15.67-21.06-30.19c3.11-16.12,13.16-26.85,28.27-29.84C480.66,393.59,487.54,393.73,494.15,395.2z"/>
	</g>
</g>
</svg>
